<?xml version="1.0" encoding="UTF-8" standalone="no"?>
<!-- Created with Inkscape (http://www.inkscape.org/) -->

<svg
   width="210mm"
   height="210mm"
   viewBox="0 0 210 210"
   version="1.1"
   id="svg1"
   xml:space="preserve"
   inkscape:version="1.4 (e7c3feb100, 2024-10-09)"
   sodipodi:docname="logo.svg"
   inkscape:export-filename="logo.png"
   inkscape:export-xdpi="96"
   inkscape:export-ydpi="96"
   xmlns:inkscape="http://www.inkscape.org/namespaces/inkscape"
   xmlns:sodipodi="http://sodipodi.sourceforge.net/DTD/sodipodi-0.dtd"
   xmlns="http://www.w3.org/2000/svg"
   xmlns:svg="http://www.w3.org/2000/svg"><sodipodi:namedview
     id="namedview1"
     pagecolor="#ffffff"
     bordercolor="#000000"
     borderopacity="0.25"
     inkscape:showpageshadow="2"
     inkscape:pageopacity="0.0"
     inkscape:pagecheckerboard="0"
     inkscape:deskcolor="#d1d1d1"
     inkscape:document-units="mm"
     inkscape:zoom="0.85076455"
     inkscape:cx="562.43528"
     inkscape:cy="606.51328"
     inkscape:window-width="3812"
     inkscape:window-height="2132"
     inkscape:window-x="0"
     inkscape:window-y="0"
     inkscape:window-maximized="1"
     inkscape:current-layer="layer1" /><defs
     id="defs1" /><g
     inkscape:label="Layer 1"
     inkscape:groupmode="layer"
     id="layer1"><path
       style="fill:#eb1c24;fill-opacity:1;stroke-width:1.19021"
       d="m 103.65381,194.38575 c -0.50303,-0.3849 -1.22668,-1.02477 -1.60812,-1.42192 -0.38142,-0.39716 -0.83017,-0.72209 -0.9972,-0.72209 -0.16705,0 -0.35095,-0.11474 -0.40869,-0.25508 -0.0577,-0.1403 -0.813508,-0.81472 -1.679517,-1.49872 -0.865997,-0.684 -1.987652,-1.59662 -2.492552,-2.02802 -3.479868,-2.97336 -4.301708,-3.68005 -5.789876,-4.97869 -0.91813,-0.8012 -1.78777,-1.53149 -1.932534,-1.62286 -0.424858,-0.26814 -4.158502,-3.54547 -5.223611,-4.58517 -0.538106,-0.52528 -1.394129,-1.28175 -1.90229,-1.68105 -0.508149,-0.39931 -1.646276,-1.38664 -2.529174,-2.19407 -7.834946,-7.16526 -8.638803,-7.90764 -13.824779,-12.76758 -5.441513,-5.09941 -16.364699,-16.01906 -21.388444,-21.38152 -2.074863,-2.21475 -4.002655,-4.00596 -4.311428,-4.00596 -0.307172,0 -0.63597,-0.12536 -0.730663,-0.27857 -0.0947,-0.15322 -0.8083,-0.37397 -1.585794,-0.49056 -0.777495,-0.11664 -1.484645,-0.3269 -1.571444,-0.46734 -0.0868,-0.14045 -0.733983,-0.34748 -1.438188,-0.46009 -0.704205,-0.11259 -1.522175,-0.33157 -1.817712,-0.48657 -0.295537,-0.15499 -1.671014,-0.58708 -3.05662,-0.96018 -1.385603,-0.37309 -2.802697,-0.79158 -3.149099,-0.92997 -0.346401,-0.13839 -1.267513,-0.41817 -2.046916,-0.62174 -0.7794,-0.20357 -2.125641,-0.58661 -2.991643,-0.85118 -0.866003,-0.26457 -2.141389,-0.62099 -2.834191,-0.79204 -0.692802,-0.17104 -1.394264,-0.44458 -1.558805,-0.60784 -0.164541,-0.16327 -0.660524,-0.30056 -1.102184,-0.30511 -0.441663,-0.004 -1.35092,-0.25443 -2.020572,-0.55531 -1.166577,-0.52414 -0.222168,-0.54207 22.557715,-0.42831 28.509263,0.14236 28.596553,0.13448 35.454906,-3.19559 2.69296,-1.30758 6.586437,-4.64852 7.292387,-6.25753 0.1772,-0.40387 0.663198,-1.33827 1.079998,-2.07645 0.416788,-0.73819 0.850454,-1.76396 0.96369,-2.27949 0.113189,-0.51554 0.336675,-1.01817 0.496544,-1.11699 0.159881,-0.0988 0.290686,-0.59642 0.290686,-1.10579 0,-1.59684 0.758807,-1.02188 1.375252,1.04204 0.323309,1.08251 0.705796,2.25161 0.849966,2.59801 0.235436,0.56569 0.825162,2.74123 1.579232,5.82584 0.395257,1.6169 1.149899,4.67528 1.554023,6.29819 0.194076,0.7794 0.466896,1.6343 0.606258,1.8998 0.139362,0.26548 0.353064,0.97403 0.474906,1.57455 0.249444,1.22952 0.979031,3.43244 1.628922,4.91836 0.238709,0.54578 0.434011,1.14485 0.434011,1.33127 0,0.61802 1.915715,3.89185 2.787462,4.76361 0.471705,0.47169 1.30584,1.0894 1.853635,1.37267 1.087532,0.5624 3.861473,0.70618 3.861473,0.20016 0,-0.1732 0.203824,-0.31492 0.452934,-0.31492 0.784076,0 2.284056,-1.66004 3.272286,-3.62147 1.78741,-3.54761 2.15677,-4.66076 3.08247,-9.28983 0.25978,-1.29902 0.69336,-3.42466 0.96352,-4.72365 0.27017,-1.29901 0.65154,-3.77891 0.84747,-5.51092 0.19595,-1.73201 0.44653,-3.29082 0.55685,-3.46402 0.11033,-0.1732 0.30284,-1.76856 0.42779,-3.54526 0.12496,-1.77669 0.35354,-3.30843 0.50796,-3.40387 0.15441,-0.0955 0.28413,-0.83827 0.28826,-1.65076 0.004,-0.81247 0.14962,-2.04407 0.3233,-2.73687 0.17368,-0.6928 0.45162,-2.60588 0.61762,-4.25128 0.16603,-1.645408 0.43733,-3.629342 0.60288,-4.408744 0.3041,-1.431607 0.77873,-4.618652 1.28969,-8.660025 0.15329,-1.212404 0.44924,-2.820186 0.65768,-3.57285 0.47272,-1.707094 0.77472,-1.272371 1.19103,1.714558 0.16659,1.195261 0.459,3.306879 0.64981,4.692482 0.19081,1.385604 0.49074,3.369537 0.66654,4.40874 0.17578,1.039203 0.44662,3.235701 0.60186,4.881106 0.4071,4.314943 0.91517,9.179773 1.29907,12.438933 0.18362,1.55881 0.45485,4.67642 0.60272,6.92804 0.44308,6.74621 0.9296,13.61631 1.25999,17.7924 0.17129,2.16501 0.39192,6.27458 0.4903,9.13239 0.32733,9.50851 1.95738,13.41561 5.74898,13.77993 1.58672,0.15247 3.83035,-0.37063 3.83035,-0.89305 0,-0.15975 0.17714,-0.296 0.39364,-0.30276 0.37965,-0.0119 2.44055,-2.56209 2.44055,-3.02005 0,-0.12355 0.18767,-0.44836 0.41704,-0.7218 0.22936,-0.27344 0.88168,-1.63084 1.44961,-3.01643 1.62367,-3.9615 1.59974,-3.88906 3.30513,-10.00054 0.73465,-2.63262 1.15302,-4.37062 1.4579,-6.05622 0.15626,-0.86399 0.4173,-1.92681 0.58008,-2.36182 0.16278,-0.43502 0.37425,-1.45254 0.46994,-2.26119 0.0957,-0.80862 0.3545,-2.04858 0.5751,-2.75545 l 0.40112,-1.28522 3.30861,-0.0449 c 1.81974,-0.0247 8.69357,-0.0325 15.27519,-0.0173 6.58161,0.0153 17.48616,0.0354 24.23233,0.0449 12.62269,0.0177 13.94686,0.17355 9.44266,1.11084 -3.55284,0.73932 -5.24176,1.13507 -6.86508,1.60862 -0.84259,0.2458 -1.80844,0.44692 -2.14635,0.44692 -0.33788,0 -0.87008,0.13685 -1.18264,0.30413 -0.31256,0.16728 -1.33065,0.44536 -2.26239,0.61796 -0.93176,0.1726 -2.61522,0.54407 -3.74103,0.82548 -1.1258,0.28141 -2.79677,0.66579 -3.71324,0.85415 -1.58737,0.32627 -1.84102,0.52964 -5.35347,4.29253 -7.24228,7.75858 -25.68308,25.95071 -31.04062,30.62203 -0.66876,0.58311 -1.95513,1.76873 -2.85857,2.63474 -1.97209,1.89032 -6.20123,5.67731 -7.34422,6.5764 -0.45162,0.35524 -1.26193,1.07568 -1.80069,1.60095 -0.53876,0.52526 -1.67444,1.52188 -2.52373,2.21468 -0.84932,0.6928 -1.86023,1.54989 -2.2465,1.90464 -0.38629,0.35475 -1.3681,1.20501 -2.18179,1.88946 -0.81371,0.68445 -1.63871,1.38909 -1.83332,1.56586 -0.19461,0.17678 -1.05921,0.88533 -1.92133,1.57456 -0.86211,0.68922 -1.85408,1.54143 -2.20437,1.89376 -0.35028,0.35236 -1.62885,1.41326 -2.84124,2.35754 -1.21242,0.94429 -2.34609,1.86389 -2.51929,2.04358 -1.34015,1.3903 -1.58678,1.46031 -2.54941,0.72375 z m 23.49092,-50.94949 c 0,-1.4518 -0.14414,-3.85378 -0.32032,-5.33773 -0.17618,-1.48393 -0.45396,-5.31968 -0.61728,-8.52388 -0.375,-7.35681 -0.86841,-14.14563 -1.29315,-17.79243 -0.18155,-1.5588 -0.46306,-4.60555 -0.62556,-6.77056 -0.76482,-10.189669 -2.19465,-21.414473 -3.57014,-28.026984 -1.11795,-5.374484 -1.29785,-6.154989 -1.48799,-6.455656 -0.1095,-0.173201 -0.29427,-0.810893 -0.41052,-1.417096 -0.45917,-2.394468 -2.16155,-6.007953 -3.40161,-7.220352 -2.05066,-2.004887 -6.19523,-1.579577 -7.41277,0.760686 -1.05753,2.032687 -1.45161,3.033076 -1.86239,4.727662 -0.56215,2.319016 -1.25245,7.578992 -1.64487,12.533538 -0.16188,2.04383 -0.44413,4.948876 -0.6272,6.455654 -0.50042,4.118454 -0.96449,8.359496 -1.29912,11.871989 -0.165,1.732006 -0.44063,3.999349 -0.61253,5.038559 -0.29131,1.76104 -0.49456,3.31345 -1.27809,9.7622 -0.16835,1.38561 -0.44233,3.15698 -0.60883,3.93639 -0.166513,0.7794 -0.46052,2.40906 -0.653357,3.62147 -0.192839,1.21239 -0.555817,3.26718 -0.806631,4.56618 -0.250801,1.29901 -0.601341,3.14123 -0.778981,4.09383 -0.323321,1.73385 -0.728444,2.50092 -1.116132,2.11323 -0.200301,-0.2003 -0.660139,-1.70834 -1.412566,-4.63251 -0.20055,-0.77941 -0.488403,-1.7005 -0.639679,-2.04692 -0.151277,-0.3464 -0.412599,-1.2675 -0.580716,-2.04692 -0.686799,-3.18397 -1.120775,-4.89813 -1.316088,-5.1984 -0.113546,-0.17452 -0.302754,-0.88307 -0.420525,-1.57456 -0.117831,-0.69147 -0.398304,-1.82407 -0.623409,-2.51687 -0.225105,-0.6928 -0.861808,-2.67674 -1.414899,-4.40874 -1.694337,-5.30588 -3.35442,-8.17977 -5.568022,-9.639195 -1.053396,-0.694502 -4.254647,-0.822443 -5.047804,-0.201741 -1.182296,0.925236 -2.500253,2.424596 -3.004795,3.418416 -0.9391,1.84975 -2.421592,5.84669 -2.440563,6.57997 -0.0071,0.2598 -0.202027,0.83609 -0.434023,1.28063 -0.231984,0.44455 -0.517229,1.18852 -0.63387,1.65328 -0.116641,0.46476 -0.3511,0.84501 -0.521004,0.84501 -0.16989,0 -0.308906,0.17025 -0.308906,0.37832 0,0.72317 -2.987633,3.19476 -4.922011,4.07186 -3.788989,1.71802 -5.355485,1.88275 -21.058063,2.21456 -7.967224,0.16836 -15.460332,0.33189 -16.651354,0.36343 -1.871834,0.0495 -2.21347,-0.0281 -2.51928,-0.5725 -0.194583,-0.3464 -0.424641,-0.70068 -0.511241,-0.78727 -0.453343,-0.45335 -1.574551,-2.21952 -1.574551,-2.4803 0,-0.16578 -0.113761,-0.34866 -0.252789,-0.40639 -0.334966,-0.13909 -2.581402,-3.87457 -2.581402,-4.29248 0,-0.17941 -0.173226,-0.30353 -0.239569,-0.43117 -2.461993,-4.73683 -3.916543,-9.28747 -5.819352,-13.040284 -0.147544,-0.290993 -0.554189,-0.484448 -0.554189,-0.878964 0,-0.38669 -0.140462,-0.843533 -0.312136,-1.015209 -0.171676,-0.171675 -0.447451,-0.943993 -0.612833,-1.716259 -0.372194,-1.737991 -0.920173,-3.910065 -1.328393,-5.265467 -1.397076,-4.638681 -1.386345,-19.399554 0.01755,-24.135806 1.234223,-4.163845 2.44646,-7.762712 2.925513,-8.685203 0.313469,-0.603636 0.569944,-1.276757 0.569944,-1.495822 0,-0.219066 0.130449,-0.398302 0.289889,-0.398302 0.159438,0 0.383262,-0.425128 0.497385,-0.94473 0.114118,-0.519601 0.337948,-0.94473 0.497387,-0.94473 0.159439,0 0.289888,-0.158599 0.289888,-0.352444 0,-0.483919 2.173225,-4.03585 3.057875,-4.997808 0.396575,-0.431231 0.721045,-0.870105 0.721045,-0.975274 0,-0.32377 4.046609,-4.959417 5.309467,-6.082334 0.408799,-0.363497 1.269893,-1.156888 1.913538,-1.763091 2.405722,-2.265767 7.201602,-5.619146 9.939591,-6.94997 0.866003,-0.420928 1.621787,-0.871607 1.679519,-1.001507 0.05774,-0.1299 0.270298,-0.237056 0.472366,-0.238122 0.202067,-0.0011 0.792523,-0.225163 1.312125,-0.497992 1.189679,-0.624668 4.452393,-1.803672 8.187656,-2.958668 0.986649,-0.305084 3.81721,-0.836751 6.770564,-1.271724 2.283443,-0.336305 8.837007,-0.326222 11.021853,0.01696 3.837158,0.602711 5.841592,1.009048 6.140752,1.24484 0.173199,0.136515 0.917177,0.347546 1.653274,0.468951 0.736098,0.121408 1.338368,0.349994 1.338368,0.507972 0,0.157975 0.296982,0.287229 0.659961,0.287229 0.362978,0 1.03609,0.194967 1.495821,0.433261 0.459719,0.238292 1.521031,0.769702 2.358475,1.180913 4.929902,2.420753 10.33271,6.818512 13.81741,11.247071 0.907524,1.153339 1.724294,2.167836 1.815036,2.254436 0.434748,0.414895 1.582088,2.213624 1.582088,2.480286 0,0.165781 0.106286,0.348655 0.236185,0.406389 0.439498,0.195335 4.172558,7.439864 4.172558,8.097448 0,0.193951 0.14171,0.352637 0.31492,0.352637 0.17319,0 0.3149,-0.212564 0.3149,-0.472365 0,-0.2598 0.1417,-0.472364 0.31491,-0.472364 0.17321,0 0.31492,-0.20128 0.31492,-0.447286 0,-0.552011 2.23377,-5.023829 2.58182,-5.16861 0.13881,-0.05774 0.25237,-0.256761 0.25237,-0.442282 0,-0.47815 3.19692,-5.278583 3.51535,-5.278583 0.14496,0 0.26445,-0.177137 0.26552,-0.393638 0.003,-0.742703 7.43203,-8.108932 8.1773,-8.108932 0.17782,0 0.32331,-0.132199 0.32331,-0.293772 0,-0.615797 8.7281,-5.374609 9.85751,-5.374609 0.22471,0 0.54317,-0.133582 0.70772,-0.29685 0.31961,-0.317137 1.01116,-0.507179 7.06972,-1.942764 2.16226,-0.512351 9.91785,-0.703152 12.59641,-0.309894 4.55857,0.669276 5.9324,0.91541 6.97673,1.249944 0.57941,0.185603 1.97459,0.628917 3.10038,0.985144 2.18852,0.692492 2.45468,0.794668 4.88112,1.873825 2.81874,1.253637 3.77708,1.74302 3.88388,1.983333 0.0577,0.129901 0.25177,0.236183 0.43118,0.236183 0.34103,0 4.07126,2.171372 4.34496,2.529213 0.0867,0.113224 0.93687,0.74664 1.88946,1.407595 0.95261,0.660956 2.04409,1.533515 2.42552,1.93902 0.38143,0.405504 0.76629,0.737282 0.85526,0.737282 0.37884,0 6.79634,6.789278 6.79634,7.190068 0,0.148588 0.28342,0.526648 0.62981,0.840137 0.34642,0.313488 0.62983,0.748771 0.62983,0.967295 0,0.218523 0.10629,0.444551 0.23619,0.502285 0.34493,0.153303 1.65327,2.074579 1.65327,2.427802 0,0.165779 0.10628,0.348654 0.23618,0.406388 0.54484,0.242155 4.48746,8.752806 4.48746,9.686775 0,0.289744 0.12678,0.66143 0.28173,0.825971 0.38042,0.403943 0.86388,2.49217 2.00139,8.644281 0.48901,2.644806 0.49443,11.930745 0.008,14.17095 -0.20674,0.952603 -0.51418,2.582263 -0.68321,3.621466 -0.696,4.279007 -2.29374,9.750855 -3.97823,13.624449 -0.24588,0.56543 -0.64033,1.48655 -0.87656,2.04691 -0.9675,2.29501 -4.58469,9.34788 -4.964,9.67889 -0.0993,0.0866 -0.28193,0.37003 -0.40599,0.62983 -0.31836,0.66668 -0.78628,1.42564 -2.40523,3.90119 l -1.4171,2.16691 -11.80912,-0.19894 c -6.49503,-0.10938 -15.84784,-0.29132 -20.78407,-0.40421 -9.68729,-0.22155 -12.58865,0.0214 -14.23269,1.19213 -1.59148,1.13323 -1.76671,1.69697 -3.11736,10.02871 -0.1821,1.12337 -0.44493,2.18619 -0.58405,2.36182 -0.13913,0.17564 -0.35121,1.13194 -0.4713,2.12511 -0.12009,0.99319 -0.33148,1.87567 -0.46972,1.96112 -0.13825,0.0855 -0.34501,0.86126 -0.45946,1.72403 -0.11449,0.86278 -0.34569,1.65372 -0.51387,1.75766 -0.16818,0.10396 -0.30578,0.50438 -0.30578,0.88986 0,0.81998 -1.17732,4.32104 -1.5997,4.75713 -0.17722,0.18291 -0.28983,-0.72666 -0.28983,-2.3405 z"
       id="path1"
       sodipodi:nodetypes="ssssssssssssssscssssssssscssssscssssssssssssssssssssscssssssssssssssssssssssssccscssssssssssssssssssssssssssssssssssssssssssssssscssssscsssssscssssssssssssssssssssssssssssssssssssssssssssssscsssssssssssssssssssssssssssssssccssssssssscs" /></g></svg>
